<svg xmlns="http://www.w3.org/2000/svg" viewBox="0 0 476.65 465.51"><defs><style>.cls-1{fill:#8b6800;}</style></defs><title>Asset 34</title><g id="Layer_2" data-name="Layer 2"><g id="Layer_1-2" data-name="Layer 1"><path class="cls-1" d="M268.9,465.51H209.8c27.22-20.37,29.55-327.58,29.55-327.58S243.6,457.3,268.9,465.51Z"/><path class="cls-1" d="M0,465.51s115.45-20,237-20,239.63,20,239.63,20Z"/><path class="cls-1" d="M60.59,225.55,79.77,224A64.88,64.88,0,0,1,133.7,245.9l12.18,13.87-19.07,1.49a64.89,64.89,0,0,1-53.47-21.45Z"/><path class="cls-1" d="M161.76,244.36l11.68-2.74a40.47,40.47,0,0,1,35.29,8.45l8.8,7.41-11.61,2.7A40.48,40.48,0,0,1,171,252Z"/><path class="cls-1" d="M318.91,112.07l5-10.92a40.46,40.46,0,0,1,28.24-22.79l11.25-2.44-5,10.85a40.47,40.47,0,0,1-27.86,22.66Z"/><path class="cls-1" d="M153.46,160.46l17.73,7.47A64.88,64.88,0,0,1,209,212.17l4.43,17.92-17.62-7.45A64.92,64.92,0,0,1,158.21,179Z"/><path class="cls-1" d="M57.17,308.74,69.65,294.1a64.94,64.94,0,0,1,53.61-22.67l18.41,1.2-12.42,14.54a64.93,64.93,0,0,1-53,22.64Z"/><path class="cls-1" d="M16.91,180.84l12.27-5.34a45.15,45.15,0,0,1,40.44,2.21l11.15,6.37-12.21,5.29a45.19,45.19,0,0,1-40-2Z"/><path class="cls-1" d="M365.31,278.61l19.22-.74a64.9,64.9,0,0,1,53,24.08l11.59,14.35L430,317a64.92,64.92,0,0,1-52.54-23.63Z"/><path class="cls-1" d="M54,95.7l18.3,5.93a64.89,64.89,0,0,1,41.45,40.86L119.65,160,101.46,154a64.88,64.88,0,0,1-41.18-40.28Z"/><path class="cls-1" d="M182.29,113.08l9.27,4a34.08,34.08,0,0,1,19.62,23.43l2.23,9.43-9.21-4a34.08,34.08,0,0,1-19.51-23.13Z"/><path class="cls-1" d="M56.9,365.77l6-8.1A34.06,34.06,0,0,1,90.24,344h9.69l-6,8.05a34.06,34.06,0,0,1-27,13.68Z"/><path class="cls-1" d="M107.15,194.76l10.08-.58a34.08,34.08,0,0,1,28.06,12.14l6.22,7.42-10,.56a34.08,34.08,0,0,1-27.81-11.9Z"/><path class="cls-1" d="M188.08,358.21l-2.4-9.81a34.08,34.08,0,0,1,6.81-29.8l6.17-7.48,2.37,9.76a34.06,34.06,0,0,1-6.63,29.52Z"/><path class="cls-1" d="M212.53,90.07l6.9,4.88a28.54,28.54,0,0,1,12.07,22.56l.21,8.1-6.86-4.85a28.53,28.53,0,0,1-12-22.29Z"/><path class="cls-1" d="M263.69,92.07l-.42,8.44a28.51,28.51,0,0,1-12.58,22.27L244,127.31l.43-8.4a28.53,28.53,0,0,1,12.37-22.09Z"/><path class="cls-1" d="M311.58,235.15l9.82-2.34a34.07,34.07,0,0,1,29.76,7l7.44,6.2-9.77,2.33a34.11,34.11,0,0,1-29.48-6.8Z"/><path class="cls-1" d="M310.92,229.05,315,219.8a34.06,34.06,0,0,1,23.53-19.51L348,198.1l-4.05,9.2a34.09,34.09,0,0,1-23.22,19.4Z"/><path class="cls-1" d="M137.05,80l8.09,6a34.1,34.1,0,0,1,13.68,27.34v9.69l-8-6a34.11,34.11,0,0,1-13.64-27Z"/><path class="cls-1" d="M351.33,330l-10.1.39a34.05,34.05,0,0,1-27.82-12.64l-6.09-7.54,10-.37A34.06,34.06,0,0,1,345,322.22Z"/><path class="cls-1" d="M412.62,182.41l-6,8.1a34.08,34.08,0,0,1-27.31,13.73h-9.69l6-8.05a34.1,34.1,0,0,1,27-13.69Z"/><path class="cls-1" d="M220.22,265.83l-1.9,6.67A23.44,23.44,0,0,1,204.11,288l-6.23,2.36,1.91-6.63a23.41,23.41,0,0,1,14-15.37Z"/><path class="cls-1" d="M287.76,217.39,285,227.1a34.11,34.11,0,0,1-20.73,22.47L255.17,253l2.79-9.65A34.14,34.14,0,0,1,278.39,221Z"/><path class="cls-1" d="M283.64,161.37l-2,9.91a34.06,34.06,0,0,1-18.76,24.12l-8.75,4.17,2-9.85a34.07,34.07,0,0,1,18.49-23.95Z"/><path class="cls-1" d="M425.52,370.17l-9.79-2.48a34.08,34.08,0,0,1-23.12-20l-3.71-8.95,9.73,2.48a34.07,34.07,0,0,1,23,19.7Z"/><path class="cls-1" d="M288.4,131.26l-2.18-9.86a34.11,34.11,0,0,1,7.49-29.64l6.34-7.33,2.15,9.81a34.09,34.09,0,0,1-7.3,29.36Z"/><path class="cls-1" d="M460.16,121.55,447.1,135.66a64.91,64.91,0,0,1-54.5,20.45l-18.35-2,13-14a64.9,64.9,0,0,1,53.87-20.44Z"/><path class="cls-1" d="M113.53,387.42l2.35-19.08a64.93,64.93,0,0,1,32.25-48.46l16-9.14-2.36,19a64.93,64.93,0,0,1-31.74,48.08Z"/><path class="cls-1" d="M288.52,319.05l16.64,9.65a64.9,64.9,0,0,1,31.91,48.67l2.13,18.33-16.53-9.62A64.89,64.89,0,0,1,290.89,338Z"/><path class="cls-1" d="M259,264.93l15.59-1.78a53,53,0,0,1,44.58,16.36l10.3,11-15.5,1.74a52.93,52.93,0,0,1-44.19-16Z"/><path class="cls-1" d="M450,231.3l-12.95,14.22a64.92,64.92,0,0,1-54.33,20.9l-18.36-1.8,12.9-14.13A64.87,64.87,0,0,1,431,229.61Z"/><path class="cls-1" d="M368.4,121.32l-3.34,19A64.89,64.89,0,0,1,330.34,187l-16.48,8.3,3.34-18.83a64.89,64.89,0,0,1,34.19-46.37Z"/><path class="cls-1" d="M235.94,0l-9,16.66c-9.56,17.74-8.93,38.1,1.69,54.92l9.56,15.14,8.9-16.57c9.42-17.55,8.89-37.66-1.43-54.37Z"/></g></g></svg>